<svg xmlns="http://www.w3.org/2000/svg" viewBox="0 0 512 512">
  <defs>
    <linearGradient id="grad" x1="0%" y1="0%" x2="100%" y2="100%">
      <stop offset="0%" style="stop-color:#0f172a;stop-opacity:1" />
      <stop offset="100%" style="stop-color:#0d9488;stop-opacity:1" />
    </linearGradient>
  </defs>
  <rect width="512" height="512" rx="112" fill="url(#grad)" />
  <path d="M256,100 C170,100 100,170 100,256 C100,342 170,412 256,412 C342,412 412,342 412,256 C412,238 408,221 402,205 C372,246 322,272 266,272 C188,272 125,209 125,131 C125,120 126,109 128,99 C119,109 110,120 102,131" fill="#facc15" />
  <path d="M256,360 L256,220 L300,160 L340,220 L340,360 Z" fill="#ffffff" opacity="0.9" />
  <circle cx="300" cy="140" r="12" fill="#ffffff" />
  <path d="M190,360 L190,260 L220,220 L250,260 L250,360 Z" fill="#e2e8f0" opacity="0.7" />
  <circle cx="220" cy="200" r="8" fill="#e2e8f0" />
</svg>
