<svg xmlns="http://www.w3.org/2000/svg" viewBox="0 0 512 512">
  <defs>
    <linearGradient id="iconGrad" x1="0%" y1="0%" x2="100%" y2="100%">
      <stop offset="0%" stop-color="#0f766e" />
      <stop offset="100%" stop-color="#042f2e" />
    </linearGradient>
  </defs>
  <rect width="512" height="512" rx="112" fill="url(#iconGrad)" />
  <g fill="none" stroke="#ffffff" stroke-width="24" stroke-linecap="round" stroke-linejoin="round">
    <!-- Outer Octagram (Islamic Star) -->
    <path d="M256 70 L285 160 L380 132 L352 227 L442 256 L352 285 L380 380 L285 352 L256 442 L227 352 L132 380 L160 285 L70 256 L160 227 L132 132 L227 160 Z" fill="rgba(255,255,255,0.05)" />
    <!-- Inner geometric pattern -->
    <path d="M256 120 L280 180 L340 172 L320 232 L392 256 L320 280 L340 340 L280 332 L256 392 L232 332 L172 340 L192 280 L120 256 L192 232 L172 172 L232 180 Z" fill="rgba(255,255,255,0.1)" stroke-width="16" />
    <circle cx="256" cy="256" r="40" fill="#ffffff" />
  </g>
</svg>
